<svg xmlns="http://www.w3.org/2000/svg" viewBox="0 0 280 180">
  <path d="M75.8800 162.1600L75.8800 162.1600Q62.9200 162.1600 52.3900 157.5700Q41.8600 152.9800 34.3900 144.8800Q26.9200 136.7800 22.8700 126.2500Q18.8200 115.7200 18.8200 103.8400L18.8200 103.8400Q18.8200 89.2600 24.4900 78.2800Q30.1600 67.3000 39.5200 60.0100Q48.8800 52.7200 60.0400 49.1200Q71.2000 45.5200 82.1800 45.5200L82.1800 45.5200Q95.5000 45.5200 106.0300 50.2900Q116.5600 55.0600 123.9400 63.1600Q131.3200 71.2600 135.1900 81.5200Q139.0600 91.7800 139.0600 102.5800L139.0600 102.5800Q139.0600 115.1800 134.0200 125.9800Q128.9800 136.7800 120.2500 144.8800Q111.5200 152.9800 100.0900 157.5700Q88.6600 162.1600 75.8800 162.1600ZM82 157.8400L82 157.8400Q92.8000 157.8400 101.3500 152.0800Q109.9000 146.3200 114.8500 135.0700Q119.8000 123.8200 119.8000 107.8000L119.8000 107.8000Q119.8000 91.0600 114.4000 78.1000Q109 65.1400 98.9200 57.6700Q88.8400 50.2000 74.8000 50.2000L74.8000 50.2000Q57.3400 50.2000 47.7100 62.7100Q38.0800 75.2200 38.0800 97.3600L38.0800 97.3600Q38.0800 110.3200 41.3200 121.3900Q44.5600 132.4600 50.4100 140.7400Q56.2600 149.0200 64.2700 153.4300Q72.2800 157.8400 82 157.8400Z" fill="#C4614A"/>
  <path d="M73.5840 148L73.5840 148Q73.3380 148 73.3380 147.5080Q73.3380 147.0160 73.5840 147.0160L73.5840 147.0160Q76.5360 147.0160 77.4790 145.9090Q78.4220 144.8020 78.4220 141.3580L78.4220 141.3580L78.4220 128.4840Q78.4220 123.8100 76.7000 121.5550Q74.9780 119.3000 71.2060 119.3000L71.2060 119.3000Q68.3360 119.3000 65.4250 120.9810Q62.5140 122.6620 60.4640 125.6140L60.4640 125.6140L60.1360 124.6300Q63.4980 120.0380 67.0650 117.6600Q70.6320 115.2820 74.5680 115.2820L74.5680 115.2820Q79.0780 115.2820 81.5790 117.9060Q84.0800 120.5300 84.0800 125.3680L84.0800 125.3680L84.0800 141.3580Q84.0800 144.8020 85.0230 145.9090Q85.9660 147.0160 89 147.0160L89 147.0160Q89.2460 147.0160 89.2460 147.5080Q89.2460 148 89 148L89 148Q87.4420 148 85.4740 147.9180Q83.5060 147.8360 81.2920 147.8360L81.2920 147.8360Q79.0780 147.8360 77.0690 147.9180Q75.0600 148 73.5840 148ZM51.5260 148L51.5260 148Q51.2800 148 51.2800 147.5080Q51.2800 147.0160 51.5260 147.0160L51.5260 147.0160Q54.4780 147.0160 55.4210 145.9090Q56.3640 144.8020 56.3640 141.3580L56.3640 141.3580L56.3640 125.3680Q56.3640 122.7440 55.7490 121.5140Q55.1340 120.2840 53.6580 120.2840L53.6580 120.2840Q52.8380 120.2840 51.7720 120.5710Q50.7060 120.8580 49.3120 121.4320L49.3120 121.4320Q48.9840 121.5960 48.8200 121.1450Q48.6560 120.6940 48.9020 120.5300L48.9020 120.5300L58.9880 115.6920Q59.3160 115.6100 59.4800 115.6100L59.4800 115.6100Q60.2180 115.6100 61.1200 117.4140Q62.0220 119.2180 62.0220 122.5800L62.0220 122.5800L62.0220 141.3580Q62.0220 144.8020 62.9650 145.9090Q63.9080 147.0160 66.9420 147.0160L66.9420 147.0160Q67.1880 147.0160 67.1880 147.5080Q67.1880 148 66.9420 148L66.9420 148Q65.3840 148 63.4160 147.9180Q61.4480 147.8360 59.2340 147.8360L59.2340 147.8360Q57.0200 147.8360 55.0110 147.9180Q53.0020 148 51.5260 148Z" fill="#C4614A"/>
  <path d="M200.8160 165L200.8160 165Q200.6240 165 200.6240 164.6160Q200.6240 164.2320 200.8160 164.2320L200.8160 164.2320Q202.9920 164.2320 203.7280 163.3360Q204.4640 162.4400 204.4640 159.8160L204.4640 159.8160L204.4640 148.1680Q204.4640 145.9920 204.0160 145Q203.5680 144.0080 202.4800 144.0080L202.4800 144.0080Q201.9680 144.0080 201.3280 144.2000Q200.6880 144.3920 199.9200 144.7760L199.9200 144.7760Q199.6640 144.8400 199.5040 144.4560Q199.3440 144.0720 199.5360 144.0080L199.5360 144.0080L208.7520 139.7200Q208.8800 139.6560 208.9440 139.6560L208.9440 139.6560Q209.2000 139.6560 209.4880 139.9440Q209.7760 140.2320 209.7760 140.4240L209.7760 140.4240Q209.7760 141.1280 209.7120 142.9840Q209.6480 144.8400 209.6480 148.1040L209.6480 148.1040L209.6480 159.8160Q209.6480 162.4400 210.3840 163.3360Q211.1200 164.2320 213.2960 164.2320L213.2960 164.2320Q213.4880 164.2320 213.4880 164.6160Q213.4880 165 213.2960 165L213.2960 165Q212.0160 165 210.4160 164.9360Q208.8160 164.8720 207.0240 164.8720L207.0240 164.8720Q205.2960 164.8720 203.6640 164.9360Q202.0320 165 200.8160 165ZM206.7040 132.9360L206.7040 132.9360Q205.0400 132.9360 204.1120 132.0400Q203.1840 131.1440 203.1840 129.4800L203.1840 129.4800Q203.1840 127.9440 204.1120 127.0480Q205.0400 126.1520 206.7040 126.1520L206.7040 126.1520Q208.3040 126.1520 209.1680 127.0480Q210.0320 127.9440 210.0320 129.4800L210.0320 129.4800Q210.0320 132.9360 206.7040 132.9360Z" fill="#1C1410"/>
</svg>
