<?xml version="1.0" encoding="UTF-8"?>
<svg version="1.1" xmlns="http://www.w3.org/2000/svg" width="280" height="180">
<path d="M0 0 C8.52798059 7.35655469 13.37597925 17.74571148 15.0625 28.8125 C16.32622668 52.84760938 11.2885606 73.55496747 -4.9375 91.8125 C-13.06065093 100.55561744 -24.27204032 106.13863679 -36.15234375 107.0625 C-46.80805685 107.43273107 -55.72501933 105.39562972 -64.09375 98.5703125 C-74.49688311 88.65207119 -78.80438471 76.92894118 -79.22314453 62.75927734 C-79.45011876 44.19278561 -73.82261092 26.85736726 -62.9375 11.8125 C-62.46699219 11.15765625 -61.99648437 10.5028125 -61.51171875 9.828125 C-47.31738401 -8.24466177 -18.98407634 -13.65075724 0 0 Z M-44.9375 8.8125 C-49.69678027 14.88999165 -49.69678027 14.88999165 -52.9375 21.8125 C-49.3075 21.8125 -45.6775 21.8125 -41.9375 21.8125 C-41.6075 22.8025 -41.2775 23.7925 -40.9375 24.8125 C-40.40125 24.3175 -39.865 23.8225 -39.3125 23.3125 C-36.25343299 21.38045768 -34.4947204 21.28270122 -30.9375 21.8125 C-28.15854187 24.69935096 -27.5527846 26.81117343 -27.4609375 30.76171875 C-27.43 31.69177734 -27.3990625 32.62183594 -27.3671875 33.58007812 C-27.34914062 34.54365234 -27.33109375 35.50722656 -27.3125 36.5 C-27.26172194 38.42068025 -27.20724046 40.34126743 -27.1484375 42.26171875 C-27.13087402 43.11080811 -27.11331055 43.95989746 -27.09521484 44.8347168 C-27.15258771 46.8136325 -27.15258771 46.8136325 -25.9375 47.8125 C-29.2375 47.8125 -32.5375 47.8125 -35.9375 47.8125 C-35.6075 47.4825 -35.2775 47.1525 -34.9375 46.8125 C-34.85064397 45.25077255 -34.83047781 43.68520656 -34.83984375 42.12109375 C-34.84467773 40.70473633 -34.84467773 40.70473633 -34.84960938 39.25976562 C-34.85798828 38.26654297 -34.86636719 37.27332031 -34.875 36.25 C-34.87951172 35.25291016 -34.88402344 34.25582031 -34.88867188 33.22851562 C-34.90049993 30.75645151 -34.91698151 28.28450482 -34.9375 25.8125 C-36.2575 25.4825 -37.5775 25.1525 -38.9375 24.8125 C-41.6493411 27.41729474 -42.16366837 29.48060158 -42.265625 33.10546875 C-42.25503824 34.73715264 -42.22850432 36.36879705 -42.1875 38 C-42.18234375 38.83208984 -42.1771875 39.66417969 -42.171875 40.52148438 C-42.49844368 44.4844936 -42.49844368 44.4844936 -40.9375 47.8125 C-44.2375 47.8125 -47.5375 47.8125 -50.9375 47.8125 C-50.4425 47.3175 -50.4425 47.3175 -49.9375 46.8125 C-49.85036169 45.10477642 -49.83049993 43.39351351 -49.83984375 41.68359375 C-49.84306641 40.64912109 -49.84628906 39.61464844 -49.84960938 38.54882812 C-49.85798828 37.46021484 -49.86636719 36.37160156 -49.875 35.25 C-49.87951172 34.15751953 -49.88402344 33.06503906 -49.88867188 31.93945312 C-49.90050174 29.23041505 -49.91698457 26.52148401 -49.9375 23.8125 C-51.2575 23.4825 -52.5775 23.1525 -53.9375 22.8125 C-61.00042683 42.54556274 -66.17098185 67.29866747 -56.80078125 87.23046875 C-53.88838635 92.27433248 -50.54836434 95.62574348 -45.1875 98.0625 C-37.64436943 99.80322244 -32.10517326 99.21719196 -25.28125 95.39453125 C-13.10478387 87.17541661 -7.78477864 71.2302835 -4.62890625 57.53125 C-1.6338632 41.42231791 -0.09969975 21.37903721 -8.9375 6.8125 C-12.46323872 2.83026067 -16.60006114 0.2446385 -21.8984375 -0.44140625 C-30.47915104 -0.90807664 -39.16099457 2.31783444 -44.9375 8.8125 Z " fill="#A0392A" transform="translate(164.9375,40.1875)"/>
<path d="M0 0 C3.63 0 7.26 0 11 0 C11.04898438 1.78148438 11.09796875 3.56296875 11.1484375 5.3984375 C11.22345483 7.72397463 11.29900309 10.04949468 11.375 12.375 C11.4059375 13.550625 11.436875 14.72625 11.46875 15.9375 C11.52675781 17.61972656 11.52675781 17.61972656 11.5859375 19.3359375 C11.6173584 20.37282715 11.6487793 21.4097168 11.68115234 22.47802734 C11.75954472 25.16809835 11.75954472 25.16809835 14 27 C9.38 27 4.76 27 0 27 C0.66 26.34 1.32 25.68 2 25 C2.31081337 22.60823522 2.31081337 22.60823522 2.265625 19.84375 C2.26820313 18.82152344 2.27078125 17.79929688 2.2734375 16.74609375 C2.26570312 15.67488281 2.25796875 14.60367188 2.25 13.5 C2.26160156 11.89318359 2.26160156 11.89318359 2.2734375 10.25390625 C2.26957031 8.72056641 2.26957031 8.72056641 2.265625 7.15625 C2.26336914 6.21587891 2.26111328 5.27550781 2.25878906 4.30664062 C2.22098716 1.80508033 2.22098716 1.80508033 0 0 Z " fill="#2C1810" transform="translate(174,118)"/>
<path d="M0 0 C2.625 0.375 2.625 0.375 5 1 C5.625 3.375 5.625 3.375 6 6 C5.34 6.66 4.68 7.32 4 8 C1.375 7.625 1.375 7.625 -1 7 C-1.625 4.625 -1.625 4.625 -2 2 C-1.34 1.34 -0.68 0.68 0 0 Z " fill="#2C1810" transform="translate(179,104)"/>
</svg>
