<?xml version="1.0" encoding="UTF-8"?>
<svg version="1.1" xmlns="http://www.w3.org/2000/svg" width="200" height="160">
<path d="M0 0 C8.52798059 7.35655469 13.37597925 17.74571148 15.0625 28.8125 C16.32622668 52.84760938 11.2885606 73.55496747 -4.9375 91.8125 C-13.06065093 100.55561744 -24.27204032 106.13863679 -36.15234375 107.0625 C-46.80805685 107.43273107 -55.72501933 105.39562972 -64.09375 98.5703125 C-74.49688311 88.65207119 -78.80438471 76.92894118 -79.22314453 62.75927734 C-79.45011876 44.19278561 -73.82261092 26.85736726 -62.9375 11.8125 C-62.46699219 11.15765625 -61.99648437 10.5028125 -61.51171875 9.828125 C-47.31738401 -8.24466177 -18.98407634 -13.65075724 0 0 Z M-46.6796875 10.93359375 C-60.06134606 28.88109718 -62.92330841 52.17654213 -60.71923828 73.97070312 C-59.4797608 82.39653595 -56.60819421 89.23592615 -50.5 95.1875 C-44.96816324 98.69549404 -39.38332704 99.79699127 -32.9375 98.8125 C-22.18910353 95.27900575 -16.76763214 87.97587328 -11.75 78.3125 C-2.35796184 59.37006826 1.07970628 33.69054558 -5.75 13.3984375 C-8.23340868 7.0450503 -11.29071564 3.88229653 -17.25 0.5 C-28.60362532 -2.40441578 -39.36403416 2.02686782 -46.6796875 10.93359375 Z " fill="#FFFFFF" transform="translate(127.9375,32.1875)"/>
<path d="M0 0 C2.5397942 2.20269424 3.83718177 3.99400096 4.37988281 7.34716797 C4.54624722 10.1319856 4.60986942 12.89779845 4.625 15.6875 C4.65045038 17.58737075 4.68390566 19.48715644 4.7265625 21.38671875 C4.73550537 22.64295044 4.73550537 22.64295044 4.74462891 23.92456055 C4.81113201 26.22143854 4.81113201 26.22143854 7 28 C2.38 28 -2.24 28 -7 28 C-6.34 27.34 -5.68 26.68 -5 26 C-4.72258755 23.76964703 -4.72258755 23.76964703 -4.8046875 21.2109375 C-4.81113281 20.26992187 -4.81757812 19.32890625 -4.82421875 18.359375 C-4.84935547 16.88210937 -4.84935547 16.88210937 -4.875 15.375 C-4.88402344 14.38242188 -4.89304687 13.38984375 -4.90234375 12.3671875 C-4.92595884 9.91121866 -4.95889201 7.45572832 -5 5 C-6.97536745 5.34786708 -6.97536745 5.34786708 -9 6 C-10.70913373 9.41826747 -10.18458479 13.23354763 -10.1875 17 C-10.19974609 17.83273438 -10.21199219 18.66546875 -10.22460938 19.5234375 C-10.22654297 20.32007812 -10.22847656 21.11671875 -10.23046875 21.9375 C-10.23663208 23.03384766 -10.23663208 23.03384766 -10.24291992 24.15234375 C-10.15817335 26.24776007 -10.15817335 26.24776007 -8 28 C-12.62 28 -17.24 28 -22 28 C-21.34 27.34 -20.68 26.68 -20 26 C-19.68918663 23.60823522 -19.68918663 23.60823522 -19.734375 20.84375 C-19.73179688 19.82152344 -19.72921875 18.79929687 -19.7265625 17.74609375 C-19.73429687 16.67488281 -19.74203125 15.60367188 -19.75 14.5 C-19.73839844 12.89318359 -19.73839844 12.89318359 -19.7265625 11.25390625 C-19.73042969 9.72056641 -19.73042969 9.72056641 -19.734375 8.15625 C-19.73663086 7.21587891 -19.73888672 6.27550781 -19.74121094 5.30664062 C-19.77901284 2.80508033 -19.77901284 2.80508033 -22 1 C-18.37 1 -14.74 1 -11 1 C-10.67 1.66 -10.34 2.32 -10 3 C-9.195625 2.2575 -9.195625 2.2575 -8.375 1.5 C-5.27859404 -0.45562482 -3.60146865 -0.60024477 0 0 Z " fill="#FFFFFF" transform="translate(97,56)"/>
<path d="M0 0 C3.63 0 7.26 0 11 0 C11.04898438 1.78148438 11.09796875 3.56296875 11.1484375 5.3984375 C11.22345483 7.72397463 11.29900309 10.04949468 11.375 12.375 C11.4059375 13.550625 11.436875 14.72625 11.46875 15.9375 C11.52675781 17.61972656 11.52675781 17.61972656 11.5859375 19.3359375 C11.6173584 20.37282715 11.6487793 21.4097168 11.68115234 22.47802734 C11.75954472 25.16809835 11.75954472 25.16809835 14 27 C9.38 27 4.76 27 0 27 C0.66 26.34 1.32 25.68 2 25 C2.31081337 22.60823522 2.31081337 22.60823522 2.265625 19.84375 C2.26820313 18.82152344 2.27078125 17.79929688 2.2734375 16.74609375 C2.26570312 15.67488281 2.25796875 14.60367188 2.25 13.5 C2.26160156 11.89318359 2.26160156 11.89318359 2.2734375 10.25390625 C2.26957031 8.72056641 2.26957031 8.72056641 2.265625 7.15625 C2.26336914 6.21587891 2.26111328 5.27550781 2.25878906 4.30664062 C2.22098716 1.80508033 2.22098716 1.80508033 0 0 Z " fill="#FFFFFF" transform="translate(142,111)"/>
<path d="M0 0 C2.625 0.375 2.625 0.375 5 1 C5.625 3.375 5.625 3.375 6 6 C5.34 6.66 4.68 7.32 4 8 C1.375 7.625 1.375 7.625 -1 7 C-1.625 4.625 -1.625 4.625 -2 2 C-1.34 1.34 -0.68 0.68 0 0 Z " fill="#FFFFFF" transform="translate(147,97)"/>
</svg>
