<?xml version="1.0" encoding="UTF-8"?>
<svg version="1.1" xmlns="http://www.w3.org/2000/svg" width="200" height="160">
<path d="M0 0 C10.41757805 7.49466047 15.56100027 16.22210166 17.625 28.8125 C19.67534718 48.30943774 15.27344914 68.16773639 2.8984375 83.625 C-4.60018609 92.28320456 -13.39098005 99.85617402 -25 102 C-36.98583832 102.76001678 -46.77606773 102.59963159 -56.375 94.5625 C-65.127104 86.26733315 -69.82970433 76.84814469 -70.3359375 64.71484375 C-70.67238924 43.37130151 -66.2634996 23.9184632 -51 8 C-45.32418674 2.66350166 -39.40222582 -0.6220829 -32 -3 C-31.40960938 -3.19207031 -30.81921875 -3.38414063 -30.2109375 -3.58203125 C-20.37848913 -5.44081566 -8.74783477 -5.0926362 0 0 Z M-40 14 C-52.37695559 30.72561566 -54.64479419 52.89956419 -52 73 C-50.50352201 81.27464299 -47.14844384 87.98294994 -40.25 93 C-34.33199549 94.82092446 -28.56171302 95.0117921 -22.8125 92.5 C-11.43592588 85.87508736 -5.88527382 72.33522646 -2.625 60.125 C1.24117633 44.82838929 2.96235161 25.10660748 -4.79296875 10.7578125 C-7.40457174 6.95450717 -10.59688021 4.4677066 -15 3 C-25.51217847 1.71236368 -33.49579808 5.88150218 -40 14 Z " fill="#A0392A" transform="translate(129,34)"/>
<path d="M0 0 C2.375 1.25 2.375 1.25 3.375 4.25 C3.28732913 6.99607776 3.14543265 9.70091508 2.9375 12.4375 C2.88529297 13.18708984 2.83308594 13.93667969 2.77929688 14.70898438 C2.64986216 16.55637082 2.51313482 18.40324371 2.375 20.25 C3.035 20.25 3.695 20.25 4.375 20.25 C4.705 19.26 5.035 18.27 5.375 17.25 C6.035 17.25 6.695 17.25 7.375 17.25 C7.03854211 20.39027363 6.32263914 21.30098295 4 23.5625 C3.13375 24.119375 2.2675 24.67625 1.375 25.25 C0.385 24.92 -0.605 24.59 -1.625 24.25 C-2.50777755 19.73184719 -2.73089503 15.47487306 -2.6875 10.875 C-2.67847656 9.62976563 -2.66945313 8.38453125 -2.66015625 7.1015625 C-2.64855469 6.16054688 -2.63695313 5.21953125 -2.625 4.25 C-4.59100775 4.44637806 -4.59100775 4.44637806 -6.625 5.25 C-7.70040755 6.98442774 -7.70040755 6.98442774 -8.25 9.1875 C-8.48589844 9.98929688 -8.72179687 10.79109375 -8.96484375 11.6171875 C-10.01347543 15.79930438 -10.87177891 20.00537764 -11.625 24.25 C-12.945 24.25 -14.265 24.25 -15.625 24.25 C-15.48320962 22.02057252 -15.33640302 19.79146372 -15.1875 17.5625 C-15.10628906 16.32113281 -15.02507812 15.07976562 -14.94140625 13.80078125 C-14.68008683 10.86819663 -14.27701621 8.11558383 -13.625 5.25 C-14.07875 5.745 -14.5325 6.24 -15 6.75 C-16.625 8.25 -16.625 8.25 -18.625 8.25 C-17.875 2.5 -17.875 2.5 -15.625 0.25 C-13.0625 0.5 -13.0625 0.5 -10.625 1.25 C-10.295 1.91 -9.965 2.57 -9.625 3.25 C-9.026875 2.775625 -8.42875 2.30125 -7.8125 1.8125 C-4.92119467 -0.2527181 -3.47829996 -0.99379999 0 0 Z " fill="#A0392A" transform="translate(102.625,54.75)"/>
<path d="M0 0 C0.08226512 4.19552093 -0.18070349 7.90351747 -1 12 C-1.03824623 14.33301986 -1.04574284 16.66711508 -1 19 C-0.01 18.34 0.98 17.68 2 17 C1.63487253 19.7019433 1.30130763 21.58390852 -0.3125 23.8125 C-2 25 -2 25 -6 25 C-6.94089801 19.88756818 -6.8920062 15.68592064 -6.0625 10.5625 C-5.86785156 9.32628906 -5.67320312 8.09007813 -5.47265625 6.81640625 C-5.31667969 5.88699219 -5.16070312 4.95757812 -5 4 C-6.32 3.67 -7.64 3.34 -9 3 C-9 2.34 -9 1.68 -9 1 C-5.94152152 0.45627049 -3.11227195 0 0 0 Z " fill="#2C1810" transform="translate(149,111)"/>
<path d="M0 0 C0.99 0.66 1.98 1.32 3 2 C2.67 3.32 2.34 4.64 2 6 C0.68 6 -0.64 6 -2 6 C-1.125 1.125 -1.125 1.125 0 0 Z " fill="#2C1810" transform="translate(148,99)"/>
</svg>
